HIERARCHY
ROOT Hips
{
	OFFSET -14.64140 90.27770 -84.91600
	CHANNELS 6 Xposition Yposition Zposition Zrotation Xrotation Yrotation
	JOINT Spine
	{
		OFFSET 0.00000 13.20850 -1.60436
		CHANNELS 3 Zrotation Xrotation Yrotation
		JOINT Spine1
		{
			OFFSET 0.00000 8.61716 0.00000
			CHANNELS 3 Zrotation Xrotation Yrotation
			JOINT Spine2
			{
				OFFSET 0.00000 8.61717 0.00000
				CHANNELS 3 Zrotation Xrotation Yrotation
				JOINT Spine3
				{
					OFFSET 0.00000 8.61717 0.00000
					CHANNELS 3 Zrotation Xrotation Yrotation
					JOINT Neck
					{
						OFFSET 0.00000 11.07920 1.10792
						CHANNELS 3 Zrotation Xrotation Yrotation
						JOINT Neck1
						{
							OFFSET 0.00000 7.08032 0.00000
							CHANNELS 3 Zrotation Xrotation Yrotation
							JOINT Head
							{
								OFFSET 0.00000 7.08031 0.00000
								CHANNELS 3 Zrotation Xrotation Yrotation
								End site
								{
									OFFSET 0.00000 0.00000 0.00000
								}
							}
						}
					}
					JOINT RightShoulder
					{
						OFFSET -0.01000 7.91373 5.19711
						CHANNELS 3 Zrotation Xrotation Yrotation
						JOINT RightArm
						{
							OFFSET -18.41580 0.00000 0.00000
							CHANNELS 3 Zrotation Xrotation Yrotation
							JOINT RightForeArm
							{
								OFFSET -29.11090 0.00000 0.00000
								CHANNELS 3 Zrotation Xrotation Yrotation
								JOINT RightHand
								{
									OFFSET -24.65040 0.00000 0.00000
									CHANNELS 3 Zrotation Xrotation Yrotation
									JOINT RightHandThumb1
									{
										OFFSET -5.35114 -0.85590 3.97906
										CHANNELS 3 Zrotation Xrotation Yrotation
										JOINT RightHandThumb2
										{
											OFFSET -4.52789 0.00000 0.00000
											CHANNELS 3 Zrotation Xrotation Yrotation
											JOINT RightHandThumb3
											{
												OFFSET -2.46976 0.00000 0.00000
												CHANNELS 3 Zrotation Xrotation Yrotation
												End site
												{
													OFFSET 0.00000 0.00000 0.00000
												}
											}
										}
									}
									JOINT RightHandIndex1
									{
										OFFSET -14.26970 0.00000 2.88139
										CHANNELS 3 Zrotation Xrotation Yrotation
										JOINT RightHandIndex2
										{
											OFFSET -5.48836 0.00000 0.00000
											CHANNELS 3 Zrotation Xrotation Yrotation
											JOINT RightHandIndex3
											{
												OFFSET -3.01859 0.00000 0.00000
												CHANNELS 3 Zrotation Xrotation Yrotation
												End site
												{
													OFFSET 0.00000 0.00000 0.00000
												}
											}
										}
									}
									JOINT RightHandMiddle1
									{
										OFFSET -14.26970 0.00000 -0.09147
										CHANNELS 3 Zrotation Xrotation Yrotation
										JOINT RightHandMiddle2
										{
											OFFSET -6.17441 0.00000 0.00000
											CHANNELS 3 Zrotation Xrotation Yrotation
											JOINT RightHandMiddle3
											{
												OFFSET -3.56743 0.00000 0.00000
												CHANNELS 3 Zrotation Xrotation Yrotation
												End site
												{
													OFFSET 0.00000 0.00000 0.00000
												}
											}
										}
									}
									JOINT RightHandRing1
									{
										OFFSET -12.69180 0.00000 -3.06433
										CHANNELS 3 Zrotation Xrotation Yrotation
										JOINT RightHandRing2
										{
											OFFSET -5.62556 0.00000 0.00000
											CHANNELS 3 Zrotation Xrotation Yrotation
											JOINT RightHandRing3
											{
												OFFSET -3.56744 0.00000 0.00000
												CHANNELS 3 Zrotation Xrotation Yrotation
												End site
												{
													OFFSET 0.00000 0.00000 0.00000
												}
											}
										}
									}
									JOINT RightHandPinky1
									{
										OFFSET -11.11390 0.00000 -6.03719
										CHANNELS 3 Zrotation Xrotation Yrotation
										JOINT RightHandPinky2
										{
											OFFSET -4.52789 0.00000 0.00000
											CHANNELS 3 Zrotation Xrotation Yrotation
											JOINT RightHandPinky3
											{
												OFFSET -2.46976 0.00000 0.00000
												CHANNELS 3 Zrotation Xrotation Yrotation
												End site
												{
													OFFSET 0.00000 0.00000 0.00000
												}
											}
										}
									}
								}
							}
						}
					}
					JOINT LeftShoulder
					{
						OFFSET 0.01000 7.91373 5.19711
						CHANNELS 3 Zrotation Xrotation Yrotation
						JOINT LeftArm
						{
							OFFSET 18.41580 0.00000 0.00000
							CHANNELS 3 Zrotation Xrotation Yrotation
							JOINT LeftForeArm
							{
								OFFSET 29.11090 0.00000 0.00000
								CHANNELS 3 Zrotation Xrotation Yrotation
								JOINT LeftHand
								{
									OFFSET 24.65040 0.00000 0.00000
									CHANNELS 3 Zrotation Xrotation Yrotation
									JOINT LeftHandThumb1
									{
										OFFSET 5.35114 -0.85590 3.97906
										CHANNELS 3 Zrotation Xrotation Yrotation
										JOINT LeftHandThumb2
										{
											OFFSET 4.52789 0.00000 0.00000
											CHANNELS 3 Zrotation Xrotation Yrotation
											JOINT LeftHandThumb3
											{
												OFFSET 2.46977 0.00000 0.00000
												CHANNELS 3 Zrotation Xrotation Yrotation
												End site
												{
													OFFSET 0.00000 0.00000 0.00000
												}
											}
										}
									}
									JOINT LeftHandIndex1
									{
										OFFSET 14.26970 0.00000 2.88139
										CHANNELS 3 Zrotation Xrotation Yrotation
										JOINT LeftHandIndex2
										{
											OFFSET 5.48836 0.00000 0.00000
											CHANNELS 3 Zrotation Xrotation Yrotation
											JOINT LeftHandIndex3
											{
												OFFSET 3.01859 0.00000 0.00000
												CHANNELS 3 Zrotation Xrotation Yrotation
												End site
												{
													OFFSET 0.00000 0.00000 0.00000
												}
											}
										}
									}
									JOINT LeftHandMiddle1
									{
										OFFSET 14.26970 0.00000 -0.09147
										CHANNELS 3 Zrotation Xrotation Yrotation
										JOINT LeftHandMiddle2
										{
											OFFSET 6.17440 0.00000 0.00000
											CHANNELS 3 Zrotation Xrotation Yrotation
											JOINT LeftHandMiddle3
											{
												OFFSET 3.56744 0.00000 0.00000
												CHANNELS 3 Zrotation Xrotation Yrotation
												End site
												{
													OFFSET 0.00000 0.00000 0.00000
												}
											}
										}
									}
									JOINT LeftHandRing1
									{
										OFFSET 12.69180 0.00000 -3.06433
										CHANNELS 3 Zrotation Xrotation Yrotation
										JOINT LeftHandRing2
										{
											OFFSET 5.62556 0.00000 0.00000
											CHANNELS 3 Zrotation Xrotation Yrotation
											JOINT LeftHandRing3
											{
												OFFSET 3.56744 0.00000 0.00000
												CHANNELS 3 Zrotation Xrotation Yrotation
												End site
												{
													OFFSET 0.00000 0.00000 0.00000
												}
											}
										}
									}
									JOINT LeftHandPinky1
									{
										OFFSET 11.11390 0.00000 -6.03719
										CHANNELS 3 Zrotation Xrotation Yrotation
										JOINT LeftHandPinky2
										{
											OFFSET 4.52789 0.00000 0.00000
											CHANNELS 3 Zrotation Xrotation Yrotation
											JOINT LeftHandPinky3
											{
												OFFSET 2.46976 0.00000 0.00000
												CHANNELS 3 Zrotation Xrotation Yrotation
												End site
												{
													OFFSET 0.00000 0.00000 0.00000
												}
											}
										}
									}
								}
							}
						}
					}
					JOINT pCube4
					{
						OFFSET 0.00000 10.91090 1.10792
						CHANNELS 3 Zrotation Xrotation Yrotation
						End site
						{
							OFFSET 0.00000 0.00000 0.00000
						}
					}
				}
			}
		}
	}
	JOINT RightUpLeg
	{
		OFFSET -9.98441 0.00000 0.00000
		CHANNELS 3 Zrotation Xrotation Yrotation
		JOINT RightLeg
		{
			OFFSET 0.00000 -42.11790 0.00000
			CHANNELS 3 Zrotation Xrotation Yrotation
			JOINT RightFoot
			{
				OFFSET 0.00000 -45.00020 -0.00001
				CHANNELS 3 Zrotation Xrotation Yrotation
				JOINT RightForeFoot
				{
					OFFSET 0.00000 -3.74820 0.00000
					CHANNELS 3 Zrotation Xrotation Yrotation
					JOINT RightToeBase
					{
						OFFSET 0.00000 0.06325 14.43120
						CHANNELS 3 Zrotation Xrotation Yrotation
						End site
						{
							OFFSET 0.00000 0.00000 0.00000
						}
					}
				}
			}
		}
	}
	JOINT LeftUpLeg
	{
		OFFSET 9.98441 0.00000 0.00000
		CHANNELS 3 Zrotation Xrotation Yrotation
		JOINT LeftLeg
		{
			OFFSET 0.00000 -42.11800 0.00000
			CHANNELS 3 Zrotation Xrotation Yrotation
			JOINT LeftFoot
			{
				OFFSET 0.00000 -45.00070 0.00000
				CHANNELS 3 Zrotation Xrotation Yrotation
				JOINT LeftForeFoot
				{
					OFFSET 0.00000 -3.74824 0.00000
					CHANNELS 3 Zrotation Xrotation Yrotation
					JOINT LeftToeBase
					{
						OFFSET 0.00000 0.06325 14.43110
						CHANNELS 3 Zrotation Xrotation Yrotation
						End site
						{
							OFFSET 0.00000 0.00000 0.00000
						}
					}
				}
			}
		}
	}
}
MOTION
Frames: 4
Frame Time: 0.050000
-0.012136100840163073 -0.01746396316995211 -0.021916454634900277 0.0006711795973070426 -0.034898552161376634 0.03717790039886741 -1.3343464623042487 0.7884990425437306 -1.2193671434483289 -0.14090901244767554 3.8190577029543764 0.27967637275233803 -0.5612097659434705 -1.8488056725568704 0.5456462795433443 -1.05304651775385 -1.1929371248705558 -0.4081548571637443 -0.40591335545969354 12.151661408314308 -0.5242090310742231 0.577784916212733 -1.4127473558414176 -1.8408996431117122 0.9951079663019591 -17.310400390071322 -0.212743258189928 0.09516230713783289 0.7310310955290299 -14.713094316884872 73.97363504075398 7.819412016305799 3.9420802351459554 28.289605058726437 16.168694938541872 101.86665312544457 27.700043614020924 -0.22136084067927378 -5.215623085961405 4.486465223904623 -0.11846514257632744 -1.5853671579561421 0.04048421736766613 -0.02061627617004161 -56.194684728329975 0.0027160256844100264 -0.02596030186589908 -56.1946998062636 -38.75243451466307 0.017305146800164074 -0.046445030891881255 -0.01900794835102056 -0.008154670120361956 0.04619652020271208 -0.02359147029490433 -0.03777973932143653 0.021159647049453133 -36.71674233421128 0.01723801515214667 0.036385765399649196 0.018134071060458418 -6.242382931600776e-05 -0.007900458192645076 0.03070264497489834 0.022691571968832133 -0.022174819539504852 -19.726311904495702 -0.030014504870184658 0.030399252176854703 -0.03716903890677548 -0.00636741732169568 -0.013148108267241292 0.013876056799599999 -0.026834533769981284 -0.017132764225316906 24.067342082154788 -0.003752862676101822 -1.1408994547210305e-05 28.88141100751527 0.007677208982228528 -0.02752871060371087 28.833107046535535 0.03552923770834451 0.0048986142803660844 4.352670934391438 1.4545041429733927 13.916736203106625 -79.35111976306625 13.768261674970903 -10.168836428692789 -62.21920227770362 23.178765128217364 -108.74425978672102 -29.587041880112725 3.746064221393949 -1.5383753417857047 -0.49684482971715327 0.06767836511744803 -8.120831075261906 -0.03961470228839638 0.026227216319223593 44.59778430810936 -0.01967004823126383 0.026376257550417698 44.587525761184054 12.432181163608805 -0.012780363176795009 -0.03352280314373408 -0.032377778755211986 0.016406805346976885 0.04080546787052369 0.040680347484357275 0.02020460446763657 -0.01780871791132005 11.144882922056118 -0.026310583759037724 -0.034973450774717835 0.048167540973885516 0.03565199597258054 -0.02107270551617509 -0.016510139104435193 0.020330197444627815 -0.02089448634814915 4.798197253102442 -0.017089101042107587 -0.01886916084711507 0.0385321612223582 -0.015876194614090507 0.018745191491881044 -0.0390887733958078 -0.018240924306558166 0.014576912586569886 -5.555981730798594 -0.008633641212817487 -0.006603001961915966 -6.726403955739853 -0.008885686383666247 0.043150846685348174 -6.70591918400792 0.023925873326947445 -0.034573860518099526 0.011409789474706897 -0.037543295521447834 -0.03520209918475992 8.055741797533523 3.519687786332298 -19.216973660230742 0.03147232775155151 10.352756618676754 -0.011513170345157482 -5.661348470425315 -15.682381953034074 3.1917339540011502 0.002144617452824989 0.003418392854616046 -0.035617964759603826 0.03692831822828709 4.673959720245104 -0.01661250530996546 12.42965148243755 -8.229404704215876 6.918885337636961 -0.021175310379700024 46.37412967214913 0.014550476822691345 -4.363356381715929 -14.736509396277196 -3.8071628678877163 0.023262341490995642 -0.00875415184213723 0.013137152487097159 0.004959163086521318 -10.718924566310646 0.007535089874612938 
0.03874635638229041 -0.01370945335222048 -0.02712873696201127 -0.02064571291638581 -0.03142267175192472 0.018911088866011748 -1.44552031120756 0.9929541083607238 -1.2053290396459158 -0.15734157860761316 3.7554563598344246 0.2831197261935409 -0.5936298033486015 -1.8447908524818388 0.565045848832576 -1.121408851860392 -1.2194301688733225 -0.4197613102227532 -0.4353201704052958 12.03799988772477 -0.4219614277764401 0.5443826590867652 -1.4896137355607284 -1.5075526022707761 0.8688650680758879 -17.268165543391056 -0.19175235010811123 0.2622513427824223 0.6766010867000869 -14.60737519869482 73.83409131449137 8.204365870510507 3.788815880367145 25.701545888617602 16.365886583178373 100.2341400629948 27.758788386073885 -0.23620731920629767 -4.914454158414965 4.51660447030553 -0.1035432634638587 -1.5556076711073075 0.01940250254698009 -0.009823186848712057 -56.205316777758625 -0.02081300005708226 0.031907732068179415 -56.26415191064377 -38.77528347429593 0.047440002332003295 -0.016677100425211495 -0.0076308984150870104 -0.04665597416003133 0.01656901749885078 0.04164397736056164 0.0149730976357001 -0.04212233609134938 -36.6918708273809 -0.004531472520876525 0.04173936074076034 0.006068769498167814 -0.015054314638026 -0.046832736735351585 -0.03671871942728304 -0.01949737030571836 -0.00033636031534615166 -19.731478085083566 -0.0042228936922458675 0.013359498782200512 -0.007942124513264662 0.025846695524245806 0.03760950956021872 -0.02120839308555753 0.019279634981693643 0.03683528607073634 24.050057471948328 -0.005029641839994045 -0.025276883917097065 28.893930653618995 0.004992319302761063 -0.0254164819221115 28.852888726323943 -0.0388226873126532 0.0037056732817128068 4.1282875573487186 1.4081764284620941 13.817876818028417 -78.74684640101736 14.611288107308566 -10.087744384368488 -57.99643184003778 22.742946059886364 -106.02625264996556 -30.300182844210408 2.8856517857051163 -0.921636941850615 -0.43777942988547475 0.04820971082720438 -8.170518451699017 0.016112784398763142 0.022939274674758342 44.534576824547244 -0.0268325038108665 0.016541659445194565 44.55180769294636 12.505759506968323 0.04471384004442752 -0.011848015335057369 -0.004746586982439114 0.023099846901967126 -0.004834400222848898 0.006872772683711019 -0.004478936312148068 0.01050201587899675 11.080710953130701 -0.030999260919622244 0.033610541361682955 0.039880137869357346 -0.008063397981866786 0.03797321132131097 -0.007128548276279981 0.019111463296132496 0.04368100910860785 4.768359295079107 0.02061356332520663 -0.03726521585730418 0.017388177527357093 0.014625709748364642 0.003367560477255158 -0.007156989743174392 0.020601881726265123 -0.01635890141936701 -5.554773465343879 -0.00030996273074194596 -0.018958263336710704 -6.718142945264437 -0.010460409381125083 -0.01571523642161668 -6.759219290482191 -0.026562569495833344 0.030751131436405024 -0.01231357754790817 0.029071654534801598 -0.019287193135045514 8.052110826431539 3.539220649605437 -19.20336611928375 0.03995313655545643 10.395258024174442 0.0064722591902945424 -5.638022037597273 -15.635489701833771 3.196007067122227 -0.036655655551150204 0.036605118259020165 0.045668974465951 0.04613935809457923 4.700588338975779 0.015913887784093705 12.447551388701852 -8.244487014789966 6.913708314117667 0.006372009177107551 46.39493170440057 -0.02728215179738027 -4.3213362994617075 -14.780491963784504 -3.8172217047362356 -0.0048722285092400825 0.034318496536660255 -0.0003910667651217415 -0.004135580106969187 -10.707648271601263 -0.03182547479482294 
-0.018688786854967065 -0.016826625232599365 -0.042840573032816485 -0.004510539625088052 -0.005517928100136434 0.009233604603190275 -1.1854926948706799 1.238697399515769 -1.2043152500545224 -0.1659756784507433 3.7838657750648688 0.25017735946818825 -0.6031427378838267 -1.777938964697854 0.557511137699126 -1.1194261725238628 -1.1367332574961528 -0.4283685396375651 -0.5023308386579368 11.897060340388535 -0.2582469243317122 0.5471119978198542 -1.4108620818309399 -1.195234811685762 0.8407180156017281 -17.19919381933036 -0.1754957605856191 0.08895600162600228 0.7714703668168497 -14.668520065580859 73.96401916917073 9.351037054779074 3.106654934046845 22.90843559734658 16.297749386407336 97.30180651482904 27.714357330067582 -0.2616826375239704 -4.913439992938154 4.571524163388568 -0.12604474894155526 -1.579531927180819 -0.040573740330851614 0.015846173832875034 -56.229395651603625 -0.024249328364106044 0.041883644628993265 -56.19821062983539 -38.79908718475609 -0.019800465770393752 0.01075379667832825 -0.006951398300682622 -0.004739371573067183 -0.018967841404431845 -0.04371976052862205 -0.009790140735508195 -0.02607738650447036 -36.686930163387274 0.006764368325592508 0.011068481730593448 0.006711200046320739 -0.017097457302958415 -0.024789953581351134 0.0005437327408840103 -0.04769317694095026 -0.008389584167186513 -19.74237194902757 -1.1792109610060374e-05 -0.006968495975689947 0.017286787485475998 -0.046077727776096575 0.04173648671241514 0.009234567426913547 0.03369720204555301 0.044777997112108815 24.039303957724357 -0.03169428535312336 0.0008822115104786516 28.88393403012302 0.03133288998353088 0.026320645368949 28.867732456469295 -0.0443941853124443 -0.038213499308772075 4.305539305592612 1.4232182194821414 13.79308759643957 -78.18092302841276 15.874523679547519 -10.128833010401697 -53.60176058686588 21.92461811914971 -102.76468913727436 -30.995262677183092 1.2546245060067978 0.3864315729350624 -0.4850757691646981 0.10436841174236497 -8.078946552781442 0.013676230307285563 0.028768064928156603 44.567791934079146 -0.0378180727666414 -0.03595233941132878 44.600988106305216 12.471047334173674 0.04601083587121663 -6.795231407605362e-07 -0.02097990250001868 0.04980537598741522 -0.041116877053922855 0.03423786399277653 -0.02592567790466545 0.026858549123834567 11.148277075358582 -0.04581604132054702 0.010308706633044479 0.005737367286555866 0.0064164923823144685 0.011265119397820413 0.040204009557177046 0.014172387832351351 0.013092045925659481 4.74803739730916 0.015331992304450166 -0.008243408888701603 0.013511326518670312 0.040715836151529475 0.04169216683353245 -0.0025542661981984792 0.002155908643336281 -0.049350730358220754 -5.603786609815007 0.010239972436993686 0.039566871503402185 -6.74453859846412 4.361315617657893e-05 -0.018345256232585462 -6.720873259256787 0.04352763596072434 -0.024465145790192946 -0.02193077320792572 0.014885615036531706 -0.04059342358309008 8.090290432360002 3.503428781134065 -19.171953792977565 0.022065196969729292 10.411848988724024 0.026033725754324083 -5.656973540175011 -15.679030797341326 3.196029396284107 0.029581422916507654 -0.03528308716913361 -0.0190628103918179 0.03186336294246071 4.709406051478931 0.016901549890909296 12.47230804166969 -8.21197877761493 6.915297077577295 -0.013377160278593668 46.36607650704492 0.025310238365087806 -4.346527664766056 -14.770288820352201 -3.8852421690097354 -0.019574978921896927 0.02490451104479088 -0.04843116571112999 0.03370054028097392 -10.7616523741056 -0.016494593027023864 
-0.016375984351667323 0.030948930402748244 0.014774260255208086 0.02519361465537493 -0.0466799095834627 -0.00936908318002974 -0.5611946982613264 1.4502084558170893 -1.319552874943413 -0.24471185303250598 3.74132028917507 0.2553835757990948 -0.5740936295729551 -1.6965910298939217 0.49064879451280796 -1.097158814761078 -1.0885135600331592 -0.4314310219333257 -0.5134735254378217 11.789670481998497 -0.18881674249087588 0.5089463781439386 -1.3748613961233094 -0.8742773169545746 0.7210995512791023 -17.183114663134877 -0.1123188408631782 -0.45350899951575574 0.9332937481342835 -14.810370393378022 74.46315440145848 10.608919980426744 2.2182738391284738 20.757283522557913 15.764449383657 94.46639322572778 26.956896844330544 -0.30905765128623897 -5.056399126549891 4.543054214323515 -0.17265833952984683 -1.5837962834119708 -0.040977787411082454 0.01194377315730926 -56.25630840064331 0.006734259243017304 -0.04871713433914145 -56.2040007381835 -38.79673079506458 0.014368131106817637 -0.02318585388937113 0.0033531623095398844 0.043597150583648256 0.0029327060094486448 0.04406502859003315 -0.021920304579634693 0.0147322034110318 -36.67362026490722 0.023585903031496797 0.003369177536420946 -0.03746966729407371 -0.014570108345761832 0.026644893488422427 0.025678485791846135 0.04699565258087514 -0.03556006973435208 -19.783860539496402 0.009548846677888571 -0.009640170878081267 0.017200001854541968 0.005119680161880653 -0.019930029438400814 0.04889202270081485 -0.036113809512910294 0.0027993298028557477 24.021395185734985 -0.04672060124423699 -0.033718708151572 28.84243483844202 0.04589388181945487 -0.01286983356021571 28.83993082584424 -0.034715132880836025 -0.02204337744399164 4.730688321419358 1.5621955362030018 13.79815990021385 -77.48420306189551 17.860458030989687 -10.314692628448473 -49.892303939449725 20.29064755065916 -99.92599974318719 -30.87779651002003 -1.2224340500793789 2.4906467164880657 -0.48936286012695146 0.05099456524733288 -8.083671962624482 0.03870832659125279 -0.027024785330368072 44.5277513578376 0.005909350395613727 -0.02075702089308061 44.61452897039325 12.486136648319853 -0.03934908725119644 0.01490738787169613 -0.01096504505726325 0.025311914134302883 -0.015420390504514178 0.008099004367997356 0.006722667153123342 0.027216837704238203 11.112296968533688 0.0038403573302381263 -0.045763574187890614 -0.049448540959320546 0.022776620837381165 0.018362551645193716 -0.022033288699914996 -0.004671382983070387 -0.0003106351545788874 4.769590603553339 -0.00427213386085311 -0.0017361494631186617 -0.028969683109638336 0.023166843728828337 -0.006131009934368152 -0.00859788108538849 -0.04824931439239529 -0.0006878832884995586 -5.576350513714362 -0.03804699088755388 -0.01411469910747274 -6.74354173936795 0.003489241567172886 -0.04431808794058387 -6.7209270527796185 0.046913989237797944 0.03775684703480247 0.029822392273635513 -0.006845168481979457 0.030290040354912628 8.020113177991687 3.501070398772286 -19.222493166885826 0.04921968961511631 10.364418761113033 -0.026659093721928765 -5.6083505640528255 -15.651581478838335 3.185896796777629 -0.013002656119554219 0.025734003066888812 0.003253910589829927 -0.0483141934155314 4.688284189373325 -0.04386136404848128 12.43975696458704 -8.244721734073446 6.886524653675575 -0.007300488538373772 46.351202237296555 -0.014993934163826307 -4.363864115232166 -14.776875894448 -3.8064334128903963 0.00355781808448898 -0.0007334550653981744 -0.009906787080019767 0.0029685935480329158 -10.729172005484296 -0.04561607571481142 
